<svg width="203" height="56" viewBox="0 0 203 56" fill="none" xmlns="http://www.w3.org/2000/svg">
<path fill-rule="evenodd" clip-rule="evenodd" d="M64.327 8.52819C60.7426 6.04669 56.741 5.56774 52.5924 6.33456C47.0869 7.35281 43.6334 10.7998 42.0617 16.2178C40.7208 20.8351 40.7282 25.5241 41.6468 30.213C42.2197 33.127 43.3779 35.7719 45.4287 37.9417C47.8919 40.535 50.9848 41.6765 54.4272 41.9606C54.8124 41.9933 55.0223 42.129 55.2137 42.4571C56.5325 44.7163 58.3445 46.6361 60.5093 48.0675C62.2181 49.2065 64.0343 50.0412 66.1333 49.9984C67.3149 49.9683 68.2138 49.2241 68.3829 48.1593C68.5805 46.9449 67.9607 45.8689 66.8099 45.449C66.479 45.3271 66.1296 45.2491 65.7938 45.1423C63.7034 44.4798 62.0946 43.2164 61.0316 41.19C61.1513 41.1234 61.2192 41.0793 61.2908 41.058C65.0517 39.7091 67.6038 37.0541 68.9805 33.2929C70.9857 27.812 70.9857 22.2054 69.5979 16.5912C68.7854 13.2938 67.1396 10.4792 64.3257 8.52693M63.9775 30.8919C63.1441 33.7027 61.5032 35.8788 58.6128 36.6934C55.5705 37.552 52.6492 37.2905 50.1514 35.0906C48.5426 33.6801 47.703 31.7769 47.303 29.7102C46.9424 27.8371 46.6263 24.0219 46.6757 24.0105C46.7264 21.2625 46.9535 18.5447 48.0574 15.9777C49.7538 12.0518 53.1221 10.6992 56.8163 11.0499C60.8784 11.4283 63.175 13.9375 64.159 17.7653C65.2838 22.1337 65.2666 26.5499 63.9763 30.8894L63.9775 30.8919ZM136.705 37.9404C137.437 38.2899 138.083 38.721 138.273 39.6174C138.532 40.8242 137.873 41.8449 136.673 42.0511C135.4 42.2648 134.232 41.9191 133.179 41.234C132.393 40.7223 131.686 40.0649 130.944 39.469C127.421 42.2937 123.431 43.0354 119.101 41.6652C114.346 40.1654 112.297 35.1006 114.591 30.6392C115.529 28.8164 117.093 27.7253 118.928 27.015C121.654 25.9578 124.497 25.7805 127.371 25.8245C127.958 25.8358 128.546 25.8245 129.304 25.8245C129.218 24.4543 129.209 23.0288 129.008 21.6321C128.856 20.5837 128.02 20.0155 127.043 19.7691C124.959 19.2411 122.89 19.5076 120.85 20.0633C120.035 20.2845 119.255 20.6378 118.449 20.893C118.06 21.025 117.641 21.1544 117.244 21.1469C115.676 21.1129 114.796 19.3706 115.69 17.9677C116.068 17.3744 116.693 16.8765 117.305 16.5233C118.892 15.6056 120.661 15.2788 122.456 15.1091C124.804 14.8803 127.143 14.9167 129.425 15.6396C132.433 16.5899 134.17 18.8477 134.228 22.0608C134.296 25.729 134.268 29.4022 134.292 33.0742C134.296 33.6374 134.315 34.2018 134.379 34.765C134.545 36.2785 135.374 37.2993 136.705 37.9404ZM129.192 36.0874C129.262 36.0284 129.318 35.9547 129.357 35.8714C129.396 35.7881 129.417 35.6971 129.419 35.6047C129.353 34.4595 129.207 32.1678 129.224 32.1641C129.224 31.5782 129.192 30.9924 129.236 30.4142C129.274 29.8875 129.105 29.6775 128.589 29.6888C127.684 29.7001 126.777 29.6235 125.875 29.6486C124.274 29.6888 122.685 29.8372 121.202 30.5323C119.617 31.2765 118.844 32.6568 119.004 34.4293C119.173 36.2747 120.028 37.3546 121.823 37.7405C124.509 38.3188 126.989 37.7971 129.192 36.0874ZM107.355 17.3404C109.155 18.903 110.121 20.9797 110.632 23.2865C111.026 25.0615 111.274 26.8629 111.043 28.6819C110.881 29.9277 110.189 30.4959 108.953 30.5386C108.436 30.5613 107.925 30.5512 107.409 30.5512H94.34C94.0918 34.0975 96.6266 37.2364 99.9825 37.6814C102.33 37.9982 104.532 37.5821 106.662 36.5953C107.073 36.3993 107.496 36.2318 107.929 36.0937C108.845 35.8222 109.674 36.1126 110.179 36.8455C110.686 37.5821 110.737 38.6242 110.154 39.3207C109.698 39.8549 109.14 40.3666 108.527 40.6771C105.734 42.0976 102.745 42.5476 99.6689 42.1869C98.3178 42.0381 96.9897 41.7215 95.7142 41.244C92.7015 40.08 90.7396 37.7845 89.8309 34.6544C88.6196 30.4469 88.5863 26.2004 90.1667 22.0809C91.8422 17.7025 95.087 15.3517 99.68 15.0236C102.506 14.8174 105.134 15.407 107.355 17.3404ZM94.3264 26.4707H106.194C106.136 25.8849 106.112 25.3292 106.029 24.7761C105.794 23.2073 105.411 21.69 104.262 20.5221C102.427 18.6503 98.6157 18.7358 96.6365 20.6579C95.0191 22.2318 94.535 24.2645 94.3264 26.4707ZM161.741 21.4134C161.91 22.3814 161.979 23.377 161.983 24.36C162.011 29.367 161.996 34.369 161.994 39.3747C161.994 41.5231 159.92 42.7639 158.068 41.7255C157.076 41.1661 156.834 40.2296 156.834 39.161V24.8138C156.834 24.4744 156.817 24.1287 156.798 23.7868C156.614 20.9307 154.934 19.3731 152.156 19.4724C149.544 19.568 147.378 20.5988 145.695 22.6403C145.468 22.9169 145.306 23.3468 145.306 23.7088C145.287 28.8328 145.306 33.9604 145.306 39.0881C145.306 40.8041 144.674 41.7104 143.319 41.9983C141.596 42.3691 140.255 41.2868 140.197 39.4854C140.193 39.2792 140.193 39.0806 140.193 38.8782C140.193 34.5576 140.176 30.2394 140.2 25.9226C140.219 23.7088 139.8 21.6133 138.871 19.6044C138.578 18.9709 138.362 18.2304 138.352 17.534C138.345 16.6063 138.892 15.9249 139.757 15.5566C140.72 15.1581 141.693 15.2034 142.392 15.9802C143.034 16.6918 143.46 17.6019 143.972 18.4253C144.071 18.5887 144.123 18.7836 144.151 18.8527C145.233 18.0482 146.232 17.1041 147.386 16.463C150.558 14.703 153.925 14.5924 157.303 15.715C159.946 16.6025 161.265 18.7132 161.741 21.4134ZM85.7502 38.1591C86.554 38.1968 87.1343 38.6242 87.3936 39.4074C87.6615 40.2182 87.5886 41.0039 87.0009 41.6702C86.3663 42.3742 85.5267 42.657 84.6402 42.8116C82.8153 43.1209 81.0201 43.014 79.3298 42.1781C77.2419 41.1472 76.3541 39.2754 76.0232 37.0579C75.921 36.3011 75.8727 35.5377 75.8788 34.7738C75.8677 26.0772 75.8726 17.3832 75.8751 8.6891C75.8751 6.66518 77.5481 5.49985 79.4088 6.21137C80.4435 6.60107 80.9694 7.47852 80.9731 8.85629C80.9768 12.7131 80.9768 16.566 80.9768 20.4153V21.9954C80.9768 26.169 80.9694 30.3425 80.9842 34.5161C80.9842 34.9988 81.0213 35.4878 81.1028 35.9592C81.4238 37.7757 82.5449 38.5526 84.3439 38.2597C84.8056 38.1818 85.2822 38.1415 85.7502 38.1591Z" fill="#20A052"/>
</svg>
